HIERARCHY
ROOT hip
{
  OFFSET 0 0 0
  CHANNELS 6 Xposition Yposition Zposition Zrotation Yrotation Xrotation
  JOINT abdomen
  {
    OFFSET 0 20.6881 -0.73152
    CHANNELS 3 Zrotation Xrotation Yrotation
    JOINT chest
    {
      OFFSET 0 11.7043 -0.48768
      CHANNELS 3 Zrotation Xrotation Yrotation
      JOINT neck
      {
        OFFSET 0 22.1894 -2.19456
        CHANNELS 3 Zrotation Xrotation Yrotation
        JOINT head
        {
          OFFSET -0.24384 7.07133 1.2192
          CHANNELS 3 Zrotation Xrotation Yrotation
          JOINT leftEye
          {
            OFFSET 4.14528 8.04674 8.04672
            CHANNELS 3 Zrotation Xrotation Yrotation
            End Site
            {
              OFFSET 1 0 0
            }
          }
          JOINT rightEye
          {
            OFFSET -3.6576 8.04674 8.04672
            CHANNELS 3 Zrotation Xrotation Yrotation
            End Site
            {
              OFFSET 1 0 0
            }
          }
        }
      }
      JOINT rCollar
      {
        OFFSET -2.68224 19.2634 -4.8768
        CHANNELS 3 Zrotation Xrotation Yrotation
        JOINT rShldr
        {
          OFFSET -8.77824 -1.95073 1.46304
          CHANNELS 3 Zrotation Xrotation Yrotation
          JOINT rForeArm
          {
            OFFSET -28.1742 -1.7115 0.48768
            CHANNELS 3 Zrotation Xrotation Yrotation
            JOINT rHand
            {
              OFFSET -22.5879 0.773209 7.07136
              CHANNELS 3 Zrotation Xrotation Yrotation
              JOINT rThumb1
              {
                OFFSET -1.2192 -0.487915 3.41376
                CHANNELS 3 Zrotation Xrotation Yrotation
                JOINT rThumb2
                {
                  OFFSET -3.37035 -0.52449 3.41376
                  CHANNELS 3 Zrotation Xrotation Yrotation
                  End Site
                  {
                    OFFSET -1.78271 -1.18214 1.43049
                  }
                }
              }
              JOINT rIndex1
              {
                OFFSET -7.75947 0.938293 5.60832
                CHANNELS 3 Zrotation Xrotation Yrotation
                JOINT rIndex2
                {
                  OFFSET -2.54057 -0.884171 1.56538
                  CHANNELS 3 Zrotation Xrotation Yrotation
                  End Site
                  {
                    OFFSET -1.62519 -0.234802 1.16502
                  }
                }
              }
              JOINT rMid1
              {
                OFFSET -8.24714 1.18213 3.41376
                CHANNELS 3 Zrotation Xrotation Yrotation
                JOINT rMid2
                {
                  OFFSET -3.10165 -0.590103 1.0647
                  CHANNELS 3 Zrotation Xrotation Yrotation
                  End Site
                  {
                    OFFSET -2.48547 -0.328903 0.83742
                  }
                }
              }
              JOINT rRing1
              {
                OFFSET -8.82822 0.546677 1.51678
                CHANNELS 3 Zrotation Xrotation Yrotation
                JOINT rRing2
                {
                  OFFSET -2.60934 -0.819778 -0.0198488
                  CHANNELS 3 Zrotation Xrotation Yrotation
                  End Site
                  {
                    OFFSET -2.33842 -0.294052 0.168128
                  }
                }
              }
              JOINT rPinky1
              {
                OFFSET -8.27202 -0.0477905 -0.4584
                CHANNELS 3 Zrotation Xrotation Yrotation
                JOINT rPinky2
                {
                  OFFSET -1.82734 -0.647385 -0.700984
                  CHANNELS 3 Zrotation Xrotation Yrotation
                  End Site
                  {
                    OFFSET -1.69225 -0.51767 -0.607171
                  }
                }
              }
            }
          }
        }
      }
      JOINT lCollar
      {
        OFFSET 2.68224 19.2634 -4.8768
        CHANNELS 3 Zrotation Xrotation Yrotation
        JOINT lShldr
        {
          OFFSET 8.77824 -1.95073 1.46304
          CHANNELS 3 Zrotation Xrotation Yrotation
          JOINT lForeArm
          {
            OFFSET 28.1742 -1.7115 0.48768
            CHANNELS 3 Zrotation Xrotation Yrotation
            JOINT lHand
            {
              OFFSET 22.5879 0.773209 7.07136
              CHANNELS 3 Zrotation Xrotation Yrotation
              JOINT lThumb1
              {
                OFFSET 1.2192 -0.487915 3.41376
                CHANNELS 3 Zrotation Xrotation Yrotation
                JOINT lThumb2
                {
                  OFFSET 3.37035 -0.52449 3.41376
                  CHANNELS 3 Zrotation Xrotation Yrotation
                  End Site
                  {
                    OFFSET 1.78271 -1.18214 1.43049
                  }
                }
              }
              JOINT lIndex1
              {
                OFFSET 7.75947 0.938293 5.60832
                CHANNELS 3 Zrotation Xrotation Yrotation
                JOINT lIndex2
                {
                  OFFSET 2.54057 -0.884171 1.56538
                  CHANNELS 3 Zrotation Xrotation Yrotation
                  End Site
                  {
                    OFFSET 1.62519 -0.234802 1.16502
                  }
                }
              }
              JOINT lMid1
              {
                OFFSET 8.24714 1.18213 3.41376
                CHANNELS 3 Zrotation Xrotation Yrotation
                JOINT lMid2
                {
                  OFFSET 3.10165 -0.590103 1.0647
                  CHANNELS 3 Zrotation Xrotation Yrotation
                  End Site
                  {
                    OFFSET 2.48547 -0.328903 0.83742
                  }
                }
              }
              JOINT lRing1
              {
                OFFSET 8.82822 0.546677 1.51678
                CHANNELS 3 Zrotation Xrotation Yrotation
                JOINT lRing2
                {
                  OFFSET 2.60934 -0.819778 -0.0198488
                  CHANNELS 3 Zrotation Xrotation Yrotation
                  End Site
                  {
                    OFFSET 2.33842 -0.294052 0.168128
                  }
                }
              }
              JOINT lPinky1
              {
                OFFSET 8.27202 -0.0477905 -0.4584
                CHANNELS 3 Zrotation Xrotation Yrotation
                JOINT lPinky2
                {
                  OFFSET 1.82734 -0.647385 -0.700984
                  CHANNELS 3 Zrotation Xrotation Yrotation
                  End Site
                  {
                    OFFSET 1.69225 -0.51767 -0.607171
                  }
                }
              }
            }
          }
        }
      }
    }
  }
  JOINT rButtock
  {
    OFFSET -8.77824 4.35084 1.2192
    CHANNELS 3 Zrotation Xrotation Yrotation
    JOINT rThigh
    {
      OFFSET 0 -1.70687 -2.19456
      CHANNELS 3 Zrotation Xrotation Yrotation
      JOINT rShin
      {
        OFFSET 0 -36.8199 0.73152
        CHANNELS 3 Zrotation Xrotation Yrotation
        JOINT rFoot
        {
          OFFSET 0.73152 -45.1104 -5.12064
          CHANNELS 3 Zrotation Xrotation Yrotation
          End Site
          {
            OFFSET -1.1221 -3.69964 12.103
          }
        }
      }
    }
  }
  JOINT lButtock
  {
    OFFSET 8.77824 4.35084 1.2192
    CHANNELS 3 Zrotation Xrotation Yrotation
    JOINT lThigh
    {
      OFFSET 0 -1.70687 -2.19456
      CHANNELS 3 Zrotation Xrotation Yrotation
      JOINT lShin
      {
        OFFSET 0 -36.8199 0.73152
        CHANNELS 3 Zrotation Xrotation Yrotation
        JOINT lFoot
        {
          OFFSET -0.73152 -45.1104 -5.12064
          CHANNELS 3 Zrotation Xrotation Yrotation
          End Site
          {
            OFFSET 1.1221 -3.69964 12.103
          }
        }
      }
    }
  }
}
MOTION
Frames:	5
Frame Time:	0.00833333
59.8209 85.5069 -182.98 0.0 0.0 0.0 2.23535 -0.000465799 0.0604314 0.615691 0.00895934 0.106572 1.95852e-14 0.0 5.46658e-16 5.85328e-14 3.18055e-15 1.81391e-15 -0.0 0.0 0.0 -0.0 0.0 0.0 1.00377e-14 2.09656e-17 3.97569e-16 2.12331e-13 3.04389e-16 7.95139e-15 3.6067e-12 -1.06071e-12 9.85972e-14 4.11621e-11 1.16055e-12 1.29449e-12 9.71089e-11 2.15497e-13 3.0088e-12 1.67696e-10 3.75305e-13 5.18112e-12 9.71139e-11 2.1747e-13 2.99926e-12 7.73091 5.47488 0.417314 9.71103e-11 2.1588e-13 3.01199e-12 2.90554 0.965183 0.102902 9.71159e-11 2.1588e-13 3.00483e-12 10.2786 0.731801 0.0259123 9.71043e-11 2.17073e-13 3.01199e-12 2.22167 -0.733487 -0.20892 1.00402e-14 2.29068e-17 1.98785e-16 2.06036e-13 2.91965e-16 5.76476e-15 3.58324e-12 1.09848e-12 1.04958e-13 4.11745e-11 -1.00245e-12 1.28812e-12 9.70923e-11 2.07487e-13 2.98654e-12 1.6768e-10 3.56222e-13 5.16761e-12 9.70876e-11 2.09121e-13 2.99608e-12 -7.73091 5.47488 -0.417314 9.7092e-11 2.07631e-13 2.9929e-12 -2.90554 0.965183 -0.102902 9.70886e-11 2.07531e-13 2.9929e-12 -10.2786 0.731801 -0.0259123 9.70958e-11 2.10314e-13 2.98972e-12 -2.22167 -0.733487 0.20892 -2.03217e-16 0.0 -3.88251e-19 2.21892 -7.8008 -0.224724 0.00517283 8.55808 0.13543 -0.556468 -0.765895 0.0470671 2.03217e-16 0.0 3.88251e-19 1.19125 -1.92859 -0.00266327 0.00903728 -2.07859 0.074506 0.505958 3.9985 -0.13942
61.4024 84.882 -192.778 -0.4029 -2.8306 8.4512 3.70323 -0.512758 -0.0471435 0.226207 0.795288 0.0680827 -1.60535 4.64983 -2.47929 2.58012 -7.73791 -4.37647 -0.0 0.0 0.0 -0.0 0.0 0.0 2.67185e-14 -3.88096e-14 -3.09118e-14 20.666 5.16033 -1.19926 -3.69357 -1.58568 5.86555 0.0244118 3.49415 0.487857 -2.18834e-10 -2.68934e-10 4.01486e-10 -3.73565e-10 -4.66981e-10 6.97492e-10 -2.18831e-10 -2.6893e-10 4.01476e-10 7.73091 5.47488 0.417314 -2.18835e-10 -2.68931e-10 4.01489e-10 2.90554 0.965183 0.102902 -2.18826e-10 -2.68931e-10 4.01483e-10 10.2786 0.731801 0.0259123 -2.18838e-10 -2.68931e-10 4.01491e-10 2.22167 -0.733487 -0.20892 2.67396e-14 -3.88088e-14 -3.10799e-14 -20.5079 8.71992 -0.0982815 4.82631 -2.32873 -7.38522 -0.0049478 -1.5604 0.219006 -1.0363e-10 -4.9506e-10 -5.27034e-10 -1.78787e-10 -8.55309e-10 -9.12121e-10 -1.03637e-10 -4.95062e-10 -5.27027e-10 -7.73091 5.47488 -0.417314 -1.03632e-10 -4.95062e-10 -5.27032e-10 -2.90554 0.965183 -0.102902 -1.03631e-10 -4.9506e-10 -5.27029e-10 -10.2786 0.731801 -0.0259123 -1.03625e-10 -4.95057e-10 -5.27036e-10 -2.22167 -0.733487 0.20892 -2.03217e-16 0.0 -3.88251e-19 1.41863 -10.9383 0.89323 0.0065429 10.5344 0.191863 -0.127073 -2.82548 -4.16536 2.03217e-16 0.0 3.88251e-19 2.25145 -5.10909 -0.981688 0.0328363 2.60621 0.0122982 0.250398 2.2027 -2.57523
61.2265 84.8608 -192.826 -0.4764 -3.1045 8.6265 5.25952 -1.06168 -0.173182 -0.188946 1.62937 0.0239801 -2.86094 9.53524 -5.156 3.97174 -15.7682 -9.27706 -0.0 0.0 0.0 -0.0 0.0 0.0 4.57622e-14 -7.94046e-14 -6.78042e-14 42.7555 10.593 -2.50396 -7.24906 -3.20779 12.0836 -0.0154078 7.23746 1.01678 -5.62435e-10 -5.60861e-10 8.20906e-10 -9.62293e-10 -9.73869e-10 1.42636e-09 -5.62435e-10 -5.60856e-10 8.20896e-10 7.73091 5.47488 0.417314 -5.62438e-10 -5.60856e-10 8.20909e-10 2.90554 0.965183 0.102902 -5.62426e-10 -5.60857e-10 8.20906e-10 10.2786 0.731801 0.0259123 -5.62438e-10 -5.60857e-10 8.20914e-10 2.22167 -0.733487 -0.20892 4.58029e-14 -7.94051e-14 -6.79378e-14 -42.1582 17.9127 -0.21596 9.2717 -4.65393 -15.2169 0.00281235 -3.21066 0.451175 -3.36099e-10 -1.04122e-09 -1.11343e-09 -5.80047e-10 -1.79887e-09 -1.92705e-09 -3.36109e-10 -1.04122e-09 -1.11343e-09 -7.73091 5.47488 -0.417314 -3.36104e-10 -1.04122e-09 -1.11344e-09 -2.90554 0.965183 -0.102902 -3.36098e-10 -1.04122e-09 -1.11343e-09 -10.2786 0.731801 -0.0259123 -3.36094e-10 -1.04121e-09 -1.11344e-09 -2.22167 -0.733487 0.20892 -2.03217e-16 0.0 -3.88251e-19 0.714556 -14.2487 2.09589 0.00361583 12.6225 0.252215 -0.00308103 -4.96743 -8.64901 2.03217e-16 0.0 3.88251e-19 3.25833 -8.46301 -2.04998 0.0691628 7.56739 -0.0542442 -0.184866 0.311773 -5.15302
61.0513 84.8217 -192.873 -0.5665 -3.3851 8.8039 6.63321 -1.53733 -0.262382 -0.549591 2.36795 -0.008924 -3.58193 13.8435 -7.63646 3.97909 -22.6495 -14.1184 -0.0 0.0 0.0 -0.0 0.0 0.0 6.008e-14 -1.16471e-13 -9.35305e-14 62.6662 15.4533 -3.71778 -10.1211 -4.558 17.6475 -0.107831 10.4794 1.48563 -8.5072e-10 -8.07232e-10 1.19844e-09 -1.45609e-09 -1.40169e-09 2.08211e-09 -8.50722e-10 -8.07225e-10 1.19843e-09 7.73091 5.47488 0.417314 -8.50725e-10 -8.07225e-10 1.19844e-09 2.90554 0.965183 0.102902 -8.50711e-10 -8.07226e-10 1.19844e-09 10.2786 0.731801 0.0259123 -8.50723e-10 -8.07226e-10 1.19845e-09 2.22167 -0.733487 -0.20892 6.01386e-14 -1.16472e-13 -9.36373e-14 -61.4253 26.1594 -0.324695 12.7181 -6.52292 -22.2892 0.0210444 -4.68093 0.658973 -5.05073e-10 -1.4856e-09 -1.58707e-09 -8.7172e-10 -2.56664e-09 -2.7467e-09 -5.05086e-10 -1.4856e-09 -1.58707e-09 -7.73091 5.47488 -0.417314 -5.05081e-10 -1.4856e-09 -1.58708e-09 -2.90554 0.965183 -0.102902 -5.05071e-10 -1.4856e-09 -1.58707e-09 -10.2786 0.731801 -0.0259123 -5.05068e-10 -1.48559e-09 -1.58709e-09 -2.22167 -0.733487 0.20892 -2.03217e-16 0.0 -3.88251e-19 0.201254 -17.1914 3.22031 -0.00279875 14.4869 0.307831 -0.173968 -6.79914 -12.6655 2.03217e-16 0.0 3.88251e-19 4.03998 -11.4571 -2.98762 0.111286 11.9758 -0.114551 -0.717477 -1.37061 -7.44397
60.8321 84.7779 -192.926 -0.7149 -3.7056 8.8951 7.5556 -1.82984 -0.259366 -0.776662 2.86777 -0.0137732 -3.84745 16.8097 -9.4373 3.26768 -27.1972 -17.865 -0.0 0.0 0.0 -0.0 0.0 0.0 6.25831e-14 -1.44714e-13 -9.13416e-14 76.6506 18.9091 -4.59106 -11.9574 -5.41882 21.5275 -0.194632 12.471 1.78119 -1.00072e-09 -9.39711e-10 1.47125e-09 -1.71254e-09 -1.63186e-09 2.5551e-09 -1.00072e-09 -9.39703e-10 1.47125e-09 7.73091 5.47488 0.417314 -1.00072e-09 -9.39704e-10 1.47126e-09 2.90554 0.965183 0.102902 -1.00071e-09 -9.39704e-10 1.47126e-09 10.2786 0.731801 0.0259123 -1.00072e-09 -9.39705e-10 1.47127e-09 2.22167 -0.733487 -0.20892 6.26554e-14 -1.44716e-13 -9.14409e-14 -74.8161 32.0416 -0.379131 14.878 -7.68508 -27.3378 0.0400352 -5.70148 0.803972 -5.15312e-10 -1.67553e-09 -1.77882e-09 -8.89425e-10 -2.89492e-09 -3.07818e-09 -5.15325e-10 -1.67554e-09 -1.77882e-09 -7.73091 5.47488 -0.417314 -5.1532e-10 -1.67553e-09 -1.77883e-09 -2.90554 0.965183 -0.102902 -5.15309e-10 -1.67553e-09 -1.77882e-09 -10.2786 0.731801 -0.0259123 -5.15306e-10 -1.67552e-09 -1.77883e-09 -2.22167 -0.733487 0.20892 -2.03217e-16 0.0 -3.88251e-19 -0.105177 -19.2334 4.0753 -0.00944551 15.792 0.349231 -0.437522 -7.99312 -15.4442 2.03217e-16 0.0 3.88251e-19 4.50446 -13.5647 -3.55402 0.145642 15.0023 -0.15624 -1.17158 -2.55417 -9.01292
